<?xml version="1.0"?>
<svg xmlns="http://www.w3.org/2000/svg" xmlns:xlink="http://www.w3.org/1999/xlink" xmlns:svgjs="http://svgjs.com/svgjs" version="1.1" width="512" height="512" x="0" y="0" viewBox="0 0 512 512" style="enable-background:new 0 0 512 512" xml:space="preserve" class=""><g><circle xmlns="http://www.w3.org/2000/svg" cx="256" cy="72" r="8" fill="#ffffff" data-original="#000000" style="" class=""/><path xmlns="http://www.w3.org/2000/svg" d="M326.37,160a112.119,112.119,0,0,0-33.84-24.04A133.536,133.536,0,0,1,305.319,160Z" fill="#ffffff" data-original="#000000" style="" class=""/><path xmlns="http://www.w3.org/2000/svg" d="M264,160h23.811c-7.273-15.449-15.531-25.824-23.811-29.97Z" fill="#ffffff" data-original="#000000" style="" class=""/><path xmlns="http://www.w3.org/2000/svg" d="M354.328,160a168.935,168.935,0,0,0-15.312-9.9q4.479,4.682,8.7,9.9Z" fill="#ffffff" data-original="#000000" style="" class=""/><path xmlns="http://www.w3.org/2000/svg" d="M311.242,416H339.9a179.583,179.583,0,0,0,24.514-48h-41.88A315.846,315.846,0,0,1,311.242,416Z" fill="#ffffff" data-original="#000000" style="" class=""/><path xmlns="http://www.w3.org/2000/svg" d="M264,352h44.655a449.313,449.313,0,0,0,3.276-48H264Z" fill="#ffffff" data-original="#000000" style="" class=""/><path xmlns="http://www.w3.org/2000/svg" d="M264,416h30.334a286.568,286.568,0,0,0,12-48H264Z" fill="#ffffff" data-original="#000000" style="" class=""/><path xmlns="http://www.w3.org/2000/svg" d="M292.53,456.04A112.119,112.119,0,0,0,326.37,432H305.319A133.536,133.536,0,0,1,292.53,456.04Z" fill="#ffffff" data-original="#000000" style="" class=""/><path xmlns="http://www.w3.org/2000/svg" d="M342.656,107.562,352,121.578l9.344-14.016a8.02,8.02,0,0,1,2.218-2.218L377.578,96l-14.016-9.344a8.02,8.02,0,0,1-2.218-2.218L352,70.422l-9.344,14.016a8.02,8.02,0,0,1-2.218,2.218L326.422,96l14.016,9.344A8.02,8.02,0,0,1,342.656,107.562Z" fill="#ffffff" data-original="#000000" style="" class=""/><path xmlns="http://www.w3.org/2000/svg" d="M375.86,288a226.724,226.724,0,0,0-6.719-48H324.759a469.519,469.519,0,0,1,3.174,48Z" fill="#ffffff" data-original="#000000" style="" class=""/><path xmlns="http://www.w3.org/2000/svg" d="M369.141,352a226.724,226.724,0,0,0,6.719-48H327.933a469.519,469.519,0,0,1-3.174,48Z" fill="#ffffff" data-original="#000000" style="" class=""/><path xmlns="http://www.w3.org/2000/svg" d="M264,176v48h42.329a286.543,286.543,0,0,0-12-48Z" fill="#ffffff" data-original="#000000" style="" class=""/><path xmlns="http://www.w3.org/2000/svg" d="M391.867,288H423.8a166.287,166.287,0,0,0-9.473-48h-28.7A244.1,244.1,0,0,1,391.867,288Z" fill="#ffffff" data-original="#000000" style="" class=""/><path xmlns="http://www.w3.org/2000/svg" d="M407.681,224a169.478,169.478,0,0,0-34.411-48H359.2a201.707,201.707,0,0,1,22.055,48Z" fill="#ffffff" data-original="#000000" style="" class=""/><path xmlns="http://www.w3.org/2000/svg" d="M311.242,176a315.846,315.846,0,0,1,11.289,48h41.88A179.583,179.583,0,0,0,339.9,176Z" fill="#ffffff" data-original="#000000" style="" class=""/><path xmlns="http://www.w3.org/2000/svg" d="M338.719,442.213q6.188-3.5,12.076-7.515l-4.136-1.379C344.087,436.436,341.434,439.391,338.719,442.213Z" fill="#ffffff" data-original="#000000" style="" class=""/><path xmlns="http://www.w3.org/2000/svg" d="M396.9,368H381.257a204.848,204.848,0,0,1-17.881,41.108l22.3-7.433Z" fill="#ffffff" data-original="#000000" style="" class=""/><path xmlns="http://www.w3.org/2000/svg" d="M385.628,352h28.8a166.726,166.726,0,0,0,9.382-48H391.867A244.1,244.1,0,0,1,385.628,352Z" fill="#ffffff" data-original="#000000" style="" class=""/><path xmlns="http://www.w3.org/2000/svg" d="M416.411,410.53,408,385.3l-8.411,25.232a8,8,0,0,1-5.059,5.059L369.3,424l25.232,8.411a8,8,0,0,1,5.059,5.059L408,462.7l8.411-25.232a8,8,0,0,1,5.059-5.059L446.7,424l-25.232-8.411A8,8,0,0,1,416.411,410.53Z" fill="#ffffff" data-original="#000000" style="" class=""/><path xmlns="http://www.w3.org/2000/svg" d="M264,288h47.931a449.313,449.313,0,0,0-3.276-48H264Z" fill="#ffffff" data-original="#000000" style="" class=""/><path xmlns="http://www.w3.org/2000/svg" d="M157.069,432a166.481,166.481,0,0,0,16.647,10.664q-4.868-5.017-9.435-10.664Z" fill="#ffffff" data-original="#000000" style="" class=""/><path xmlns="http://www.w3.org/2000/svg" d="M264,461.971c8.28-4.147,16.538-14.522,23.811-29.971H264Z" fill="#ffffff" data-original="#000000" style="" class=""/><path xmlns="http://www.w3.org/2000/svg" d="M104.16,368A167.979,167.979,0,0,0,138.2,416h14.6a201.67,201.67,0,0,1-22.056-48Z" fill="#ffffff" data-original="#000000" style="" class=""/><path xmlns="http://www.w3.org/2000/svg" d="M120.133,304H88.187a166.727,166.727,0,0,0,9.382,48h28.8A244.1,244.1,0,0,1,120.133,304Z" fill="#ffffff" data-original="#000000" style="" class=""/><path xmlns="http://www.w3.org/2000/svg" d="M152.8,176H138.467a167.9,167.9,0,0,0-27.209,34.685l20.472,10.236A200.522,200.522,0,0,1,152.8,176Z" fill="#ffffff" data-original="#000000" style="" class=""/><path xmlns="http://www.w3.org/2000/svg" d="M95.155,283.578a7.992,7.992,0,0,1-6.958,4.408V288h31.936a245.694,245.694,0,0,1,4.816-41.53l-14.986,7.493Z" fill="#ffffff" data-original="#000000" style="" class=""/><path xmlns="http://www.w3.org/2000/svg" d="M100.422,240.845,118.111,232l-17.689-8.845a8,8,0,0,1-3.577-3.577L88,201.889l-8.845,17.689a8,8,0,0,1-3.577,3.577L57.889,232l17.689,8.845a8,8,0,0,1,3.577,3.577L88,262.111l8.845-17.689A8,8,0,0,1,100.422,240.845Z" fill="#ffffff" data-original="#000000" style="" class=""/><path xmlns="http://www.w3.org/2000/svg" d="M200.069,288H248V240H203.345A449.313,449.313,0,0,0,200.069,288Z" fill="#ffffff" data-original="#000000" style="" class=""/><path xmlns="http://www.w3.org/2000/svg" d="M205.671,224H248V176H217.666A286.543,286.543,0,0,0,205.671,224Z" fill="#ffffff" data-original="#000000" style="" class=""/><path xmlns="http://www.w3.org/2000/svg" d="M173.2,149.877A168.878,168.878,0,0,0,157.458,160h6.826Q168.6,154.657,173.2,149.877Z" fill="#ffffff" data-original="#000000" style="" class=""/><path xmlns="http://www.w3.org/2000/svg" d="M224.189,160H248V130.03C239.72,134.176,231.462,144.551,224.189,160Z" fill="#ffffff" data-original="#000000" style="" class=""/><path xmlns="http://www.w3.org/2000/svg" d="M217.666,416H248V368H205.671A286.568,286.568,0,0,0,217.666,416Z" fill="#ffffff" data-original="#000000" style="" class=""/><path xmlns="http://www.w3.org/2000/svg" d="M203.345,352H248V304H200.069A449.313,449.313,0,0,0,203.345,352Z" fill="#ffffff" data-original="#000000" style="" class=""/><path xmlns="http://www.w3.org/2000/svg" d="M248,461.971V432H224.189C231.462,447.449,239.72,457.824,248,461.971Z" fill="#ffffff" data-original="#000000" style="" class=""/><path xmlns="http://www.w3.org/2000/svg" d="M172.1,176a179.583,179.583,0,0,0-24.514,48h41.88a315.846,315.846,0,0,1,11.289-48Z" fill="#ffffff" data-original="#000000" style="" class=""/><path xmlns="http://www.w3.org/2000/svg" d="M142.859,352h44.382a469.519,469.519,0,0,1-3.174-48H136.14A226.724,226.724,0,0,0,142.859,352Z" fill="#ffffff" data-original="#000000" style="" class=""/><path xmlns="http://www.w3.org/2000/svg" d="M200.758,416a315.846,315.846,0,0,1-11.289-48h-41.88A179.583,179.583,0,0,0,172.1,416Z" fill="#ffffff" data-original="#000000" style="" class=""/><path xmlns="http://www.w3.org/2000/svg" d="M187.241,240H142.859a226.724,226.724,0,0,0-6.719,48h47.927A469.519,469.519,0,0,1,187.241,240Z" fill="#ffffff" data-original="#000000" style="" class=""/><path xmlns="http://www.w3.org/2000/svg" d="M219.47,135.96A112.119,112.119,0,0,0,185.63,160h21.051A133.536,133.536,0,0,1,219.47,135.96Z" fill="#ffffff" data-original="#000000" style="" class=""/><path xmlns="http://www.w3.org/2000/svg" d="M185.63,432a112.119,112.119,0,0,0,33.84,24.04A133.536,133.536,0,0,1,206.681,432Z" fill="#ffffff" data-original="#000000" style="" class=""/><path xmlns="http://www.w3.org/2000/svg" d="M479.155,84.422a8,8,0,0,0-10.733-3.577l-16,8A8,8,0,0,0,448,96v33.376A24,24,0,1,0,464,152V100.944l11.578-5.789A8,8,0,0,0,479.155,84.422ZM440,160a8,8,0,1,1,8-8A8.009,8.009,0,0,1,440,160Z" fill="#ffffff" data-original="#000000" style="" class=""/><path xmlns="http://www.w3.org/2000/svg" d="M88,416a8,8,0,0,0-8,8v25.376A24,24,0,1,0,96,472V424A8,8,0,0,0,88,416ZM72,480a8,8,0,1,1,8-8A8.009,8.009,0,0,1,72,480Z" fill="#ffffff" data-original="#000000" style="" class=""/><path xmlns="http://www.w3.org/2000/svg" d="M264,94.62v17.56c-2.06-.1-4.13-.15-6.21-.17-.92-.02-1.85-.02-2.78,0-.37-.01-.73,0-1.08.01h-.07q-2.94.03-5.86.17V94.62a23.878,23.878,0,0,0,16,0Z" fill="#ffffff" data-original="#000000" style="" class=""/><path xmlns="http://www.w3.org/2000/svg" d="M264,24V49.38a23.878,23.878,0,0,0-16,0V24a8,8,0,0,1,16,0Z" fill="#ffffff" data-original="#000000" style="" class=""/></g></svg>
